# xmcd CD database file
#
# Track frame offsets:
#	150
#	28494
#	77742
#	100130
#	124712
#	147055
#	168295
#	193197
#	226510
#
# Disc length: 3617 seconds
#
# Revision: 0
# Processed by: cddbd v1.4PL0 Copyright (c) Steve Scherf et al.
# Submitted via: CDex 1.51
#
DISCID=6d0e1f09
DTITLE=John Coltrane - Forever
DYEAR=2003
DGENRE=Jazz
TTITLE0=Violets For Your Furs
TTITLE1=I Want To Talk About You
TTITLE2=Like Someone In Love
TTITLE3=Slow Dance
TTITLE4=Theme For Ernie
TTITLE5=While My Lady Sleeps
TTITLE6=I Love You
TTITLE7=You Leave Me Breathless
TTITLE8=I See Your Face Before Me
EXTD=YEAR: 2003
EXTT0=
EXTT1=
EXTT2=
EXTT3=
EXTT4=
EXTT5=
EXTT6=
EXTT7=
EXTT8=
PLAYORDER=
